<svg width="162" height="24" viewBox="0 0 162 24" fill="none" xmlns="http://www.w3.org/2000/svg">
<path d="M19.2374 15.4826C18.7264 17.0726 17.8961 18.4101 16.7465 19.4953C15.5968 20.5552 14.3067 21.3249 12.876 21.8044C11.4709 22.2839 10.0019 22.4606 8.46904 22.3344C6.93618 22.183 5.54384 21.7161 4.292 20.9338C3.04017 20.1514 2.00549 19.0284 1.18796 17.5647C0.395988 16.0757 0 14.2334 0 12.0379C0 10.347 0.306572 8.76972 0.919715 7.30599C1.55841 5.84227 2.41425 4.56782 3.48725 3.48265C4.5858 2.39748 5.86318 1.55205 7.3194 0.946371C8.80116 0.315457 10.3851 0 12.0713 0C13.3486 0 14.5749 0.176656 15.7501 0.529968C16.9509 0.858044 18.0494 1.36278 19.0458 2.04416C20.0677 2.70032 20.9491 3.50789 21.6899 4.46688C22.4564 5.42587 23.0312 6.51104 23.4144 7.7224C23.5166 8.07571 23.491 8.39117 23.3378 8.66877C23.21 8.92114 22.9418 9.04732 22.533 9.04732H19.314C18.9052 9.04732 18.6242 8.94637 18.4709 8.74448C18.3432 8.54259 18.2027 8.29022 18.0494 7.98738C17.4618 6.87697 16.6187 6.08202 15.5202 5.60252C14.4472 5.09779 13.2975 4.84543 12.0713 4.84543C10.5128 4.84543 9.19715 5.19874 8.12415 5.90536C7.07669 6.61199 6.29749 7.49527 5.78654 8.55521C5.27559 9.61514 5.00733 10.776 4.98179 12.0379C4.98179 13.2744 5.25004 14.4227 5.78654 15.4826C6.32304 16.5426 7.10224 17.4259 8.12415 18.1325C9.1716 18.8391 10.4873 19.1924 12.0713 19.1924C12.3012 19.142 12.4161 19.2177 12.4161 19.4196C12.4161 19.5962 12.3012 19.6845 12.0713 19.6845C10.4107 19.6845 9.01831 19.306 7.89422 18.5489C6.77012 17.7918 5.92705 16.8454 5.365 15.7098C4.80295 14.5741 4.52193 13.3502 4.52193 12.0379C4.52193 10.7003 4.80295 9.46372 5.365 8.32808C5.92705 7.19243 6.75735 6.24606 7.8559 5.48896C8.97999 4.73186 10.3851 4.35331 12.0713 4.35331C13.4508 4.35331 14.741 4.65615 15.9417 5.26183C17.168 5.84227 18.0749 6.77602 18.6625 8.06309C18.7136 8.26498 18.8158 8.39117 18.9691 8.44164C19.1479 8.49211 19.2629 8.51735 19.314 8.51735H22.533C22.7885 8.51735 22.929 8.45426 22.9545 8.32808C22.9801 8.20189 22.9545 8.03786 22.8779 7.83596C22.4947 6.67508 21.9454 5.64038 21.2301 4.73186C20.5403 3.82334 19.71 3.06625 18.7392 2.46057C17.7939 1.82965 16.7465 1.35016 15.5968 1.02208C14.4727 0.694006 13.2975 0.529968 12.0713 0.529968C10.4618 0.529968 8.94167 0.832807 7.511 1.43849C6.10588 2.01893 4.8796 2.8265 3.83214 3.8612C2.81024 4.8959 1.99271 6.11987 1.37957 7.53312C0.791976 8.92114 0.498179 10.4227 0.498179 12.0379C0.498179 13.8044 0.779203 15.3312 1.34125 16.6183C1.9033 17.8801 2.64418 18.9148 3.56389 19.7224C4.48361 20.5047 5.51829 21.0726 6.66793 21.4259C7.84312 21.7792 9.03109 21.9054 10.2318 21.8044C11.2537 21.7287 12.2245 21.5016 13.1443 21.123C14.0895 20.7445 14.9326 20.2524 15.6735 19.6467C16.4399 19.041 17.0914 18.347 17.6279 17.5647C18.1899 16.7571 18.6114 15.8864 18.8925 14.9527H22.533C22.8907 14.9527 23.1462 15.0662 23.2994 15.2934C23.4783 15.5205 23.5166 15.8107 23.4144 16.164C23.0567 17.3502 22.5458 18.3849 21.8815 19.2681C21.2173 20.1262 20.3615 20.9211 19.314 21.653C18.3432 22.3849 17.2319 22.9653 15.98 23.3943C14.7538 23.7981 13.4508 24 12.0713 24C11.8924 24 11.803 23.9117 11.803 23.735C11.803 23.5836 11.8924 23.5079 12.0713 23.5079C13.4253 23.5079 14.6771 23.306 15.8268 22.9022C17.0019 22.4984 18.1005 21.9306 19.1224 21.1987C19.9399 20.6183 20.7064 19.8738 21.4217 18.9653C22.1626 18.0315 22.6735 17.0473 22.9545 16.0126C23.0312 15.6593 22.8907 15.4826 22.533 15.4826H19.2374Z" fill="white"/>
<path d="M43.8146 22.3722L37.6065 14.877L37.4149 14.612L37.7598 14.4984C38.9861 13.918 39.9569 13.0726 40.6722 11.9621C41.4131 10.8265 41.7835 9.57729 41.7835 8.21451C41.7835 7.20505 41.5919 6.25868 41.2087 5.37539C40.8255 4.49211 40.3018 3.7224 39.6375 3.06625C38.9989 2.41009 38.2324 1.89274 37.3383 1.5142C36.4441 1.13565 35.4861 0.946371 34.4641 0.946371H26.6083C26.3017 0.946371 26.1484 1.12303 26.1484 1.47634V3.5205C26.0973 3.64669 25.9951 3.70978 25.8418 3.70978C25.6885 3.70978 25.5863 3.64669 25.5353 3.5205V1.47634C25.5353 1.1735 25.6374 0.933754 25.8418 0.757097C26.0462 0.555205 26.3017 0.45426 26.6083 0.45426H34.4641C35.5627 0.45426 36.5846 0.656152 37.5299 1.05994C38.5007 1.46372 39.3437 2.01893 40.0591 2.72555C40.7744 3.43218 41.3365 4.25237 41.7452 5.18612C42.1795 6.11987 42.3967 7.12934 42.3967 8.21451C42.3967 9.60252 42.0135 10.877 41.247 12.0379C40.4806 13.1987 39.4715 14.1073 38.2196 14.7634L44.3128 22.183C44.5682 22.511 44.6321 22.8265 44.5044 23.1293C44.3766 23.4322 44.0956 23.5836 43.6613 23.5836H40.174C39.6886 23.5836 39.2927 23.4069 38.9861 23.0536L33.0079 15.7476H31.0919C30.7342 15.7476 30.5554 15.9243 30.5554 16.2776V22.5237C30.5554 23.2303 30.2232 23.5836 29.559 23.5836H26.6083C26.3017 23.5836 26.0462 23.4953 25.8418 23.3186C25.6374 23.1167 25.5353 22.8517 25.5353 22.5237V5.67823C25.5353 5.32492 25.6374 5.04732 25.8418 4.84543C26.0462 4.64353 26.3017 4.54259 26.6083 4.54259H34.4641C34.9751 4.54259 35.435 4.64353 35.8437 4.84543C36.278 5.04732 36.6357 5.32492 36.9167 5.67823C37.2233 6.00631 37.4532 6.39748 37.6065 6.85173C37.7853 7.28076 37.8748 7.73502 37.8748 8.21451C37.8748 9.1735 37.5554 10.0063 36.9167 10.7129C36.3036 11.4196 35.4861 11.7729 34.4641 11.7729H31.0919C30.7853 11.7729 30.5298 11.6972 30.3254 11.5457C30.1466 11.3691 30.0572 11.1167 30.0572 10.7886V6.39748C30.0572 6.19558 30.1338 6.11987 30.2871 6.17035C30.4659 6.19558 30.5554 6.27129 30.5554 6.39748V10.7886C30.5554 11.1167 30.7342 11.2808 31.0919 11.2808H34.4641C35.3328 11.2808 36.0353 10.9653 36.5718 10.3344C37.1083 9.70347 37.3766 8.99685 37.3766 8.21451C37.3766 7.40694 37.1083 6.70031 36.5718 6.09464C36.0353 5.46372 35.3328 5.14826 34.4641 5.14826H26.6083C26.3017 5.14826 26.1484 5.32492 26.1484 5.67823V22.5237C26.1484 22.877 26.3017 23.0536 26.6083 23.0536H29.559C29.8911 23.0536 30.0572 22.877 30.0572 22.5237V16.2776C30.0572 15.9243 30.1466 15.6593 30.3254 15.4826C30.5298 15.306 30.7853 15.2177 31.0919 15.2177H33.2379L39.4459 22.6751C39.5992 22.9274 39.8419 23.0536 40.174 23.0536H43.6613C43.9679 23.0536 44.0956 22.9905 44.0445 22.8644C44.019 22.7129 43.9423 22.5489 43.8146 22.3722Z" fill="white"/>
<path d="M61.3326 1.02208H57.8836C57.6537 1.02208 57.5004 1.05994 57.4238 1.13565C57.3471 1.21136 57.2449 1.33754 57.1172 1.5142L53.8216 7.45741C53.7194 7.5836 53.6044 7.62145 53.4767 7.57098C53.3489 7.49527 53.3234 7.36908 53.4 7.19243L56.6957 1.32492C56.849 1.04732 56.9895 0.832807 57.1172 0.681388C57.2705 0.529969 57.526 0.45426 57.8836 0.45426H61.3326C61.7924 0.45426 62.0734 0.605679 62.1756 0.908517C62.2778 1.21136 62.214 1.55205 61.984 1.9306L55.3161 13.0978C55.0862 13.4763 54.8818 13.4763 54.703 13.0978L48.0733 1.40063C47.9967 1.22397 47.8945 1.12303 47.7668 1.09779C47.6646 1.04732 47.5368 1.02208 47.3836 1.02208H44.0113C43.577 1.02208 43.4748 1.18612 43.7047 1.5142L50.6792 13.1735V22.5237C50.6792 22.877 50.8453 23.0536 51.1774 23.0536H54.1665C54.473 23.0536 54.6263 22.877 54.6263 22.5237V14.5741C54.6263 14.3722 54.7157 14.2713 54.8946 14.2713C55.0734 14.2713 55.1628 14.3722 55.1628 14.5741V22.5237C55.1628 23.2303 54.8307 23.5836 54.1665 23.5836H51.1774C50.8964 23.5836 50.6537 23.4953 50.4493 23.3186C50.2449 23.1167 50.1427 22.8517 50.1427 22.5237V13.3628L43.2832 1.74133C43.0532 1.38801 43.0149 1.08517 43.1682 0.832808C43.3215 0.580442 43.6025 0.45426 44.0113 0.45426H47.3836C47.8945 0.45426 48.2777 0.694007 48.5332 1.1735C49.6573 3.16719 50.6664 4.95899 51.5606 6.5489C51.9438 7.23028 52.327 7.91167 52.7102 8.59306C53.0935 9.24921 53.4384 9.85489 53.7449 10.4101C54.0515 10.9653 54.3197 11.4448 54.5497 11.8486C54.7796 12.2271 54.9329 12.4669 55.0095 12.5678L61.5625 1.66561C61.6902 1.48896 61.7541 1.33754 61.7541 1.21136C61.7541 1.08517 61.6136 1.02208 61.3326 1.02208Z" fill="white"/>
<path d="M73.3706 1.02208H65.5913C65.2337 1.02208 65.0548 1.1735 65.0548 1.47634V2.91483C65.0548 3.14196 64.9782 3.25552 64.8249 3.25552C64.6716 3.25552 64.595 3.14196 64.595 2.91483V1.47634C64.595 1.1735 64.6844 0.933754 64.8632 0.757097C65.0421 0.555205 65.2848 0.45426 65.5913 0.45426H73.3706C74.4691 0.45426 75.5038 0.656152 76.4746 1.05994C77.4454 1.46372 78.2885 2.01893 79.0038 2.72555C79.7447 3.40694 80.3195 4.22713 80.7283 5.18612C81.1626 6.11987 81.3798 7.12934 81.3798 8.21451C81.3798 9.29968 81.1626 10.3218 80.7283 11.2808C80.3195 12.2145 79.7447 13.0347 79.0038 13.7413C78.2885 14.4227 77.4454 14.9653 76.4746 15.3691C75.5038 15.7476 74.4691 15.9369 73.3706 15.9369H69.5384V22.5237C69.5384 23.2303 69.2063 23.5836 68.5421 23.5836H65.5913C64.9271 23.5836 64.595 23.2303 64.595 22.5237V5.67823C64.595 5.32492 64.6844 5.04732 64.8632 4.84543C65.0421 4.64353 65.2848 4.54259 65.5913 4.54259H73.3706C73.8815 4.54259 74.3414 4.64353 74.7502 4.84543C75.1845 5.04732 75.5549 5.3123 75.8615 5.64038C76.1681 5.96845 76.4108 6.35962 76.5896 6.81388C76.7684 7.26814 76.8578 7.73502 76.8578 8.21451C76.8578 9.19874 76.5257 10.0442 75.8615 10.7508C75.2228 11.4322 74.3925 11.7729 73.3706 11.7729H69.0019V6.73817C69.0019 6.56151 69.0914 6.47319 69.2702 6.47319C69.449 6.47319 69.5384 6.56151 69.5384 6.73817V11.2808H73.3706C74.2392 11.2808 74.9418 10.9905 75.4783 10.4101C76.0403 9.80442 76.3213 9.07256 76.3213 8.21451C76.3213 7.3817 76.0403 6.66246 75.4783 6.05678C74.9418 5.4511 74.2392 5.14826 73.3706 5.14826H65.5913C65.2337 5.14826 65.0548 5.32492 65.0548 5.67823V22.5237C65.0548 22.877 65.2337 23.0536 65.5913 23.0536H68.5421C68.8487 23.0536 69.0019 22.877 69.0019 22.5237V15.4448H73.3706C74.3925 15.4448 75.3505 15.2681 76.2447 14.9148C77.1644 14.5363 77.9692 14.0189 78.659 13.3628C79.3487 12.7066 79.8852 11.9495 80.2684 11.0915C80.6772 10.2082 80.8816 9.24921 80.8816 8.21451C80.8816 7.20505 80.6772 6.25868 80.2684 5.37539C79.8852 4.49211 79.3487 3.73502 78.659 3.1041C77.9692 2.44795 77.1644 1.94322 76.2447 1.58991C75.3505 1.21136 74.3925 1.02208 73.3706 1.02208Z" fill="white"/>
<path d="M101.699 1.02208H87.7501C87.3924 1.02208 87.2136 1.1735 87.2136 1.47634V4.20189C87.2136 4.5552 87.3924 4.73186 87.7501 4.73186H90.4709C90.6753 4.73186 90.7775 4.82019 90.7775 4.99685C90.7775 5.14826 90.6753 5.22398 90.4709 5.22398H87.7501C87.0603 5.22398 86.7154 4.88328 86.7154 4.20189V1.47634C86.7154 1.1735 86.8048 0.933754 86.9837 0.757097C87.1625 0.555205 87.418 0.45426 87.7501 0.45426H101.699C102.031 0.45426 102.274 0.555205 102.427 0.757097C102.606 0.933754 102.695 1.1735 102.695 1.47634V4.20189C102.695 4.88328 102.363 5.22398 101.699 5.22398H93.1918C92.9107 5.22398 92.7702 5.38801 92.7702 5.71609V22.5237C92.7702 22.877 92.9107 23.0536 93.1918 23.0536H96.1425C96.5002 23.0536 96.679 22.877 96.679 22.5237V6.24606C96.679 6.09464 96.7556 6.01893 96.9089 6.01893C97.0878 6.01893 97.1772 6.09464 97.1772 6.24606V22.5237C97.1772 23.2303 96.8323 23.5836 96.1425 23.5836H93.1918C92.5531 23.5836 92.2337 23.2303 92.2337 22.5237V5.71609C92.2337 5.05994 92.5531 4.73186 93.1918 4.73186H101.699C101.878 4.73186 102.006 4.68139 102.082 4.58044C102.185 4.45426 102.236 4.32808 102.236 4.20189V1.47634C102.236 1.1735 102.057 1.02208 101.699 1.02208Z" fill="white"/>
<path d="M117.485 19.3438H108.939V15.9369C108.939 15.7603 109.042 15.6719 109.246 15.6719C109.45 15.6719 109.553 15.7603 109.553 15.9369V18.8139H117.485C118.175 18.8139 118.52 19.142 118.52 19.7981V22.5237C118.52 23.2303 118.175 23.5836 117.485 23.5836H105.567C104.852 23.5836 104.494 23.2303 104.494 22.5237V14.6877C104.494 14.0315 104.852 13.7035 105.567 13.7035H116.527C116.859 13.7035 117.025 13.5268 117.025 13.1735V10.5615C117.025 10.2082 116.859 10.0315 116.527 10.0315H108.939V4.73186H117.37C117.549 4.73186 117.677 4.68139 117.753 4.58044C117.83 4.45426 117.868 4.32808 117.868 4.20189V1.47634C117.868 1.1735 117.702 1.02208 117.37 1.02208H105.567C105.21 1.02208 105.031 1.1735 105.031 1.47634V11.9621C104.98 12.1388 104.877 12.2145 104.724 12.1893C104.571 12.164 104.494 12.0883 104.494 11.9621V1.47634C104.494 1.1735 104.584 0.933754 104.762 0.757097C104.967 0.555205 105.235 0.45426 105.567 0.45426H117.37C117.702 0.45426 117.945 0.555205 118.098 0.757097C118.277 0.933754 118.367 1.1735 118.367 1.47634V4.20189C118.367 4.88328 118.034 5.22398 117.37 5.22398H109.553V9.53943H116.527C117.217 9.53943 117.562 9.88013 117.562 10.5615V13.1735C117.562 13.8801 117.217 14.2334 116.527 14.2334H105.567C105.21 14.2334 105.031 14.3849 105.031 14.6877V22.5237C105.031 22.877 105.21 23.0536 105.567 23.0536H117.485C117.843 23.0536 118.022 22.877 118.022 22.5237V19.7981C118.022 19.4953 117.843 19.3438 117.485 19.3438Z" fill="white"/>
<path d="M138.841 15.4826C138.33 17.0726 137.499 18.4101 136.35 19.4953C135.2 20.5552 133.91 21.3249 132.479 21.8044C131.074 22.2839 129.605 22.4606 128.072 22.3344C126.539 22.183 125.147 21.7161 123.895 20.9338C122.643 20.1514 121.609 19.0284 120.791 17.5647C119.999 16.0757 119.603 14.2334 119.603 12.0379C119.603 10.347 119.91 8.76972 120.523 7.30599C121.162 5.84227 122.018 4.56782 123.091 3.48265C124.189 2.39748 125.466 1.55205 126.923 0.946371C128.404 0.315457 129.988 0 131.675 0C132.952 0 134.178 0.176656 135.353 0.529968C136.554 0.858044 137.653 1.36278 138.649 2.04416C139.671 2.70032 140.552 3.50789 141.293 4.46688C142.06 5.42587 142.634 6.51104 143.018 7.7224C143.12 8.07571 143.094 8.39117 142.941 8.66877C142.813 8.92114 142.545 9.04732 142.136 9.04732H138.917C138.509 9.04732 138.228 8.94637 138.074 8.74448C137.947 8.54259 137.806 8.29022 137.653 7.98738C137.065 6.87697 136.222 6.08202 135.123 5.60252C134.05 5.09779 132.901 4.84543 131.675 4.84543C130.116 4.84543 128.8 5.19874 127.727 5.90536C126.68 6.61199 125.901 7.49527 125.39 8.55521C124.879 9.61514 124.611 10.776 124.585 12.0379C124.585 13.2744 124.853 14.4227 125.39 15.4826C125.926 16.5426 126.706 17.4259 127.727 18.1325C128.775 18.8391 130.091 19.1924 131.675 19.1924C131.904 19.142 132.019 19.2177 132.019 19.4196C132.019 19.5962 131.904 19.6845 131.675 19.6845C130.014 19.6845 128.622 19.306 127.498 18.5489C126.373 17.7918 125.53 16.8454 124.968 15.7098C124.406 14.5741 124.125 13.3502 124.125 12.0379C124.125 10.7003 124.406 9.46372 124.968 8.32808C125.53 7.19243 126.361 6.24606 127.459 5.48896C128.583 4.73186 129.988 4.35331 131.675 4.35331C133.054 4.35331 134.344 4.65615 135.545 5.26183C136.771 5.84227 137.678 6.77602 138.266 8.06309C138.317 8.26498 138.419 8.39117 138.572 8.44164C138.751 8.49211 138.866 8.51735 138.917 8.51735H142.136C142.392 8.51735 142.532 8.45426 142.558 8.32808C142.583 8.20189 142.558 8.03786 142.481 7.83596C142.098 6.67508 141.549 5.64038 140.833 4.73186C140.144 3.82334 139.313 3.06625 138.342 2.46057C137.397 1.82965 136.35 1.35016 135.2 1.02208C134.076 0.694006 132.901 0.529968 131.675 0.529968C130.065 0.529968 128.545 0.832807 127.114 1.43849C125.709 2.01893 124.483 2.8265 123.435 3.8612C122.414 4.8959 121.596 6.11987 120.983 7.53312C120.395 8.92114 120.101 10.4227 120.101 12.0379C120.101 13.8044 120.383 15.3312 120.945 16.6183C121.507 17.8801 122.247 18.9148 123.167 19.7224C124.087 20.5047 125.122 21.0726 126.271 21.4259C127.446 21.7792 128.634 21.9054 129.835 21.8044C130.857 21.7287 131.828 21.5016 132.748 21.123C133.693 20.7445 134.536 20.2524 135.277 19.6467C136.043 19.041 136.695 18.347 137.231 17.5647C137.793 16.7571 138.215 15.8864 138.496 14.9527H142.136C142.494 14.9527 142.749 15.0662 142.903 15.2934C143.082 15.5205 143.12 15.8107 143.018 16.164C142.66 17.3502 142.149 18.3849 141.485 19.2681C140.821 20.1262 139.965 20.9211 138.917 21.653C137.947 22.3849 136.835 22.9653 135.583 23.3943C134.357 23.7981 133.054 24 131.675 24C131.496 24 131.406 23.9117 131.406 23.735C131.406 23.5836 131.496 23.5079 131.675 23.5079C133.029 23.5079 134.28 23.306 135.43 22.9022C136.605 22.4984 137.704 21.9306 138.726 21.1987C139.543 20.6183 140.31 19.8738 141.025 18.9653C141.766 18.0315 142.277 17.0473 142.558 16.0126C142.634 15.6593 142.494 15.4826 142.136 15.4826H138.841Z" fill="white"/>
<path d="M160.965 1.02208H158.015C157.657 1.02208 157.478 1.1735 157.478 1.47634V9.84227H151.768C151.64 9.84227 151.577 9.75394 151.577 9.57729C151.577 9.40063 151.64 9.3123 151.768 9.3123H156.942V1.47634C156.942 1.1735 157.031 0.933754 157.21 0.757097C157.389 0.555205 157.657 0.45426 158.015 0.45426H160.965C161.246 0.45426 161.489 0.555205 161.693 0.757097C161.898 0.933754 162 1.1735 162 1.47634V22.5237C162 22.8517 161.898 23.1167 161.693 23.3186C161.489 23.4953 161.246 23.5836 160.965 23.5836H158.015C157.299 23.5836 156.942 23.2303 156.942 22.5237V14.0442H150.35C149.686 14.0442 149.354 13.7035 149.354 13.0221V1.47634C149.354 1.1735 149.175 1.02208 148.817 1.02208H145.867C145.509 1.02208 145.33 1.1735 145.33 1.47634V22.5237C145.33 22.877 145.509 23.0536 145.867 23.0536H148.817C149.175 23.0536 149.354 22.877 149.354 22.5237V16.164C149.354 15.9621 149.431 15.8612 149.584 15.8612C149.763 15.8612 149.852 15.9621 149.852 16.164V22.5237C149.852 23.2303 149.507 23.5836 148.817 23.5836H145.867C145.177 23.5836 144.832 23.2303 144.832 22.5237V1.47634C144.832 1.1735 144.909 0.933754 145.062 0.757097C145.241 0.555205 145.509 0.45426 145.867 0.45426H148.817C149.175 0.45426 149.431 0.555205 149.584 0.757097C149.763 0.933754 149.852 1.1735 149.852 1.47634V13.0221C149.852 13.3754 150.018 13.5521 150.35 13.5521H157.478V22.5237C157.478 22.877 157.657 23.0536 158.015 23.0536H160.965C161.297 23.0536 161.464 22.877 161.464 22.5237V1.47634C161.464 1.1735 161.297 1.02208 160.965 1.02208Z" fill="white"/>
</svg>
